<?xml version="1.0" encoding="UTF-8" standalone="no"?>
<!-- Created with Inkscape (http://www.inkscape.org/) -->

<svg
   xmlns:dc="http://purl.org/dc/elements/1.1/"
   xmlns:cc="http://creativecommons.org/ns#"
   xmlns:rdf="http://www.w3.org/1999/02/22-rdf-syntax-ns#"
   xmlns:svg="http://www.w3.org/2000/svg"
   xmlns="http://www.w3.org/2000/svg"
   xmlns:sodipodi="http://sodipodi.sourceforge.net/DTD/sodipodi-0.dtd"
   xmlns:inkscape="http://www.inkscape.org/namespaces/inkscape"
   width="105.83334mm"
   height="105.83334mm"
   viewBox="0 0 105.83333 105.83334"
   version="1.1"
   id="svg8"
   inkscape:version="0.92.3 (2405546, 2018-03-11)"
   sodipodi:docname="VCP.svg">
  <defs
     id="defs2" />
  <sodipodi:namedview
     id="base"
     pagecolor="#ffffff"
     bordercolor="#666666"
     borderopacity="1.0"
     inkscape:pageopacity="0.0"
     inkscape:pageshadow="2"
     inkscape:zoom="1.979899"
     inkscape:cx="249.86997"
     inkscape:cy="158.77485"
     inkscape:document-units="mm"
     inkscape:current-layer="g3724"
     showgrid="false"
     fit-margin-top="0"
     fit-margin-left="0"
     fit-margin-right="0"
     fit-margin-bottom="0"
     inkscape:snap-global="true"
     inkscape:snap-bbox="false"
     inkscape:window-width="3000"
     inkscape:window-height="1875"
     inkscape:window-x="-13"
     inkscape:window-y="-13"
     inkscape:window-maximized="1" />
  <metadata
     id="metadata5">
    <rdf:RDF>
      <cc:Work
         rdf:about="">
        <dc:format>image/svg+xml</dc:format>
        <dc:type
           rdf:resource="http://purl.org/dc/dcmitype/StillImage" />
        <dc:title></dc:title>
      </cc:Work>
    </rdf:RDF>
  </metadata>
  <g
     inkscape:label="Layer 1"
     inkscape:groupmode="layer"
     id="layer1"
     transform="translate(-52.122728,-45.130283)">
    <g
       id="g3724"
       transform="translate(3.7417734,-2.4054262)">
      <path
         style="fill:#a4749c;stroke-width:0.26458335"
         d="M 48.380955,100.45238 V 47.535709 h 52.916665 52.91667 v 52.916671 52.91667 H 101.29762 48.380955 Z"
         id="path3728"
         inkscape:connector-curvature="0" />
      <path
         style="fill:#83809e;stroke-width:0.26458335"
         d="M 48.380955,100.45238 V 47.535709 h 52.916665 52.91667 v 52.916671 52.91667 H 101.29762 48.380955 Z m 56.915495,35.31408 c 2.7892,-0.72275 4.0248,-1.74826 6.04753,-5.01929 0.56006,-0.90568 0.66956,-1.45401 0.75917,-3.80158 0.081,-2.12068 0.0226,-2.79528 -0.25717,-2.97251 -0.19904,-0.1261 -1.51411,-0.23109 -2.92238,-0.23332 -2.45321,-0.004 -2.58346,0.0252 -3.10885,0.69309 -0.36167,0.45979 -0.54837,1.08449 -0.54837,1.83486 0,1.83385 -0.35081,2.42666 -1.64172,2.77427 -1.48733,0.4005 -2.33939,0.0868 -2.92194,-1.07577 -0.41806,-0.83431 -0.46265,-1.97699 -0.46302,-11.86773 l -4.1e-4,-10.94452 0.97775,-0.89558 c 1.11936,-1.0253 1.48932,-1.0836 2.59413,-0.4088 0.84317,0.515 1.72354,2.46213 1.7211,3.8066 -0.002,1.20366 0.93214,1.59819 3.52545,1.48865 1.36083,-0.0575 2.38168,-0.23335 2.65054,-0.45662 1.04895,-0.87107 0.16339,-6.7298 -1.22744,-8.12063 -0.39409,-0.39409 -0.71653,-0.809214 -0.71653,-0.922495 0,-0.113284 -0.56554,-0.620961 -1.25677,-1.128176 -2.32213,-1.703953 -5.92212,-2.268945 -8.897691,-1.396425 -1.789382,0.524695 -3.974121,2.385311 -5.150662,4.386516 l -0.702167,1.19434 -0.07545,13.29855 -0.07545,13.29856 0.821949,1.78269 c 0.945259,2.05014 1.80076,3.0504 3.297709,3.85574 2.323052,1.24976 4.871512,1.52901 7.570702,0.82958 z m -22.472413,-0.12088 c 1.330344,-0.007 1.813158,-1.06322 2.722372,-5.95674 0.24334,-1.30969 0.628058,-3.27422 0.85493,-4.36563 0.226872,-1.0914 0.495731,-2.46062 0.597466,-3.0427 0.101735,-0.58209 0.387157,-1.89178 0.634273,-2.91042 0.684852,-2.82307 2.219484,-10.41637 2.406293,-11.90625 0.09123,-0.72761 0.330141,-1.97776 0.530913,-2.77813 0.365667,-1.45771 1.044403,-4.716987 1.297416,-6.230168 0.237275,-1.419056 -0.05006,-1.567468 -3.193839,-1.64969 -1.5699,-0.04106 -3.014559,0.03253 -3.210356,0.163523 -0.335669,0.224573 -0.951516,3.060775 -1.603698,7.385605 -0.762574,5.0569 -0.896956,5.87068 -1.234287,7.47448 -0.198951,0.94589 -0.495115,2.58257 -0.658143,3.63708 -0.495467,3.20482 -1.010899,2.7449 -1.555665,-1.38812 -0.172628,-1.30969 -0.478245,-3.27422 -0.679149,-4.36562 -0.200903,-1.09141 -0.616963,-3.41313 -0.924576,-5.15938 -1.098394,-6.23534 -1.285936,-7.087753 -1.632871,-7.421694 -0.218654,-0.210463 -1.290293,-0.371825 -2.836145,-0.427046 -2.449442,-0.0875 -2.492439,-0.07839 -3.030533,0.641938 -0.508754,0.681056 -0.522629,0.83385 -0.204216,2.248958 0.187893,0.835044 0.500183,2.470764 0.69398,3.634924 0.193796,1.16417 0.603922,3.24776 0.911391,4.63021 0.307469,1.38245 0.663945,3.16839 0.792168,3.96875 0.280478,1.75072 1.449363,7.64962 1.999771,10.09203 0.21785,0.96671 0.396091,1.99483 0.396091,2.28472 0,0.28989 0.172297,1.10629 0.382879,1.81423 0.210584,0.70793 0.631825,2.47777 0.936091,3.93298 0.304268,1.45521 0.769323,3.30068 1.033459,4.10104 0.469101,1.42144 0.507244,1.45902 1.643598,1.61918 0.639841,0.0902 1.401474,0.12157 1.692515,0.0697 0.291042,-0.0518 0.848085,-0.0958 1.237872,-0.0978 z m 39.059453,-0.48115 c 0.43945,-0.43945 0.47114,-1.00669 0.39738,-7.11177 -0.0685,-5.66874 -0.0219,-6.68262 0.32042,-6.96668 0.27455,-0.22786 0.95019,-0.28834 2.14755,-0.19223 2.46227,0.19765 4.57184,-0.52644 6.26964,-2.15199 2.25165,-2.15584 3.0134,-4.23672 3.25682,-8.89667 0.28667,-5.4881 -0.86697,-9.02375 -3.67508,-11.263273 -1.9519,-1.556687 -3.47013,-1.874581 -9.10482,-1.906421 -4.34751,-0.02455 -4.88599,0.02162 -5.37111,0.46064 -0.53254,0.481949 -0.53916,0.711427 -0.53916,18.685964 0,10.76127 0.10198,18.46625 0.24955,18.8544 0.30635,0.80575 0.63397,0.89614 3.38847,0.93487 1.77861,0.025 2.27124,-0.0577 2.66034,-0.44684 z m 0.59011,-20.93632 c -0.16029,-0.29952 -0.27389,-2.52813 -0.27389,-5.37339 0,-5.86265 0.0222,-5.92005 2.1868,-5.66564 1.98183,0.23293 2.25954,0.36657 2.76423,1.33026 0.34632,0.66127 0.42945,1.59071 0.41318,4.61947 -0.0189,3.51727 -0.0621,3.83609 -0.59738,4.40584 -1.04581,1.11321 -4.02075,1.56575 -4.49294,0.68346 z M 81.803137,93.066178 c 1.247013,-1.142479 1.772949,-2.249552 1.945249,-4.094669 0.213661,-2.288045 -0.0047,-2.542048 -2.185308,-2.542048 -1.864141,0 -2.225871,0.298159 -2.225871,1.83469 0,1.60164 -1.898923,2.454341 -3.132109,1.406456 -0.524827,-0.445965 -0.547351,-0.75539 -0.611462,-8.400521 -0.05465,-6.516074 0.0024,-8.079064 0.319161,-8.728015 0.930421,-1.906809 3.42441,-0.704754 3.42441,1.6505 0,1.085425 0.449038,1.388973 2.054685,1.388973 2.104758,0 2.445568,-0.270161 2.431619,-1.927538 -0.02172,-2.581139 -1.467815,-5.062501 -3.401147,-5.836067 -2.925313,-1.170479 -5.742884,-0.713572 -7.662013,1.242498 -1.737349,1.770792 -1.880734,2.703476 -1.885678,12.26587 -0.0038,7.355664 0.03816,8.106773 0.525796,9.410085 0.851489,2.275808 2.616313,3.571179 5.290904,3.883496 1.725917,0.201538 3.925714,-0.467085 5.111764,-1.55371 z m 27.535803,0.691671 c 2.02627,-1.127348 3.07119,-2.901977 3.07119,-5.215936 0,-1.928137 -0.27271,-2.161638 -2.40529,-2.05953 l -1.65774,0.07937 -0.3098,1.379985 c -0.42263,1.882497 -0.7662,2.235719 -2.0804,2.138844 -1.70812,-0.125913 -1.74064,-0.295106 -1.74397,-9.075079 -0.003,-7.186307 0.0303,-7.727451 0.52138,-8.532813 0.43025,-0.705655 0.68987,-0.859896 1.44742,-0.859896 0.75465,0 0.99682,0.142472 1.32681,0.780611 0.22202,0.429336 0.40367,1.070989 0.40367,1.425897 0,0.354907 0.20872,0.903045 0.46382,1.218084 0.40428,0.499256 0.68454,0.56247 2.18282,0.492334 l 1.71898,-0.08047 v -2.160854 c 0,-1.978674 -0.0676,-2.256983 -0.80193,-3.301033 -0.44106,-0.627097 -1.36742,-1.489794 -2.05858,-1.917104 -1.09464,-0.676763 -1.51997,-0.779407 -3.29911,-0.796156 -1.60207,-0.01508 -2.27066,0.102267 -3.10079,0.544246 -1.11894,0.595743 -2.60803,2.254273 -3.037018,3.382591 -0.142568,0.374981 -0.282199,4.639783 -0.314473,9.605126 -0.06259,9.628643 -0.05225,9.715503 1.399841,11.754779 0.86751,1.218295 2.91693,2.065647 4.99436,2.064959 1.44927,-5.29e-4 1.96501,-0.137003 3.27881,-0.867957 z m -11.894998,0.351078 c 0.631939,-0.240263 0.678683,-0.375859 0.678683,-1.968759 0,-1.078032 -0.122317,-1.789891 -0.330729,-1.924778 -0.181901,-0.117729 -1.819011,-0.273585 -3.638021,-0.346345 l -3.307292,-0.132292 -0.0751,-2.844927 c -0.103809,-3.932362 -0.128037,-3.901948 3.108225,-3.901948 3.172645,0 3.449172,-0.180303 3.449172,-2.248959 0,-2.084826 -0.261692,-2.248958 -3.585734,-2.248958 -3.261585,0 -3.092445,0.218197 -2.973909,-3.836459 l 0.07735,-2.645833 3.238256,-0.03135 c 2.165345,-0.02097 3.37071,-0.141277 3.638022,-0.363126 0.280455,-0.232757 0.399764,-0.83733 0.399764,-2.025718 0,-1.600198 -0.03985,-1.709095 -0.720085,-1.967719 -0.432475,-0.164426 -2.660425,-0.241069 -5.578073,-0.191889 -4.45061,0.07502 -4.88944,0.124956 -5.233041,0.595478 -0.311142,0.426074 -0.375052,2.643959 -0.375052,13.015728 v 12.502135 l 0.588039,0.411879 c 0.478489,0.335145 1.461098,0.411877 5.274443,0.411877 2.577521,0 4.991812,-0.116115 5.365086,-0.258035 z m 21.768878,-0.535715 c 0.25349,-0.50314 0.33419,-3.601202 0.33716,-12.943751 0.004,-14.016559 0.13006,-13.250001 -2.17117,-13.250001 -2.53357,0 -2.32285,-1.225709 -2.32285,13.511587 v 12.963801 l 0.59531,0.245406 c 0.32742,0.134975 1.18773,0.220435 1.9118,0.189913 1.1105,-0.04681 1.36863,-0.158994 1.64975,-0.716955 z m 14.66231,0.356211 c 0.20498,-0.246991 0.36312,-1.03587 0.36312,-1.81142 0,-2.1493 -0.1773,-2.248958 -4.00114,-2.248958 h -3.2749 l -0.0661,-4.431771 c -0.0364,-2.437474 -0.0661,-7.327784 -0.0661,-10.867356 0,-6.064508 -0.0296,-6.457347 -0.51359,-6.813021 -0.6197,-0.455415 -2.51272,-0.494116 -3.44271,-0.07038 l -0.67391,0.307053 v 12.908966 c 0,12.01513 0.0321,12.927643 0.46302,13.178653 0.2704,0.157494 2.62342,0.273032 5.65615,0.277731 4.51418,0.007 5.24059,-0.04916 5.55625,-0.429493 z"
         id="path3726"
         inkscape:connector-curvature="0" />
    </g>
  </g>
</svg>
